<?xml version="1.0" encoding="UTF-8" standalone="no"?>
<!--
  felipebalbi.github.io favicon
  - background: ef-melissa accent yellow (#ffa21f)
  - foreground: ef-melissa light fg-main (#484431)
  - lowercase "fb", geometric serif-flavored letterforms
  - 32x32 viewBox so 1 unit = 1 pixel at default tab size
-->

<svg
   viewBox="0 0 32 32"
   shape-rendering="geometricPrecision"
   version="1.1"
   id="svg7"
   sodipodi:docname="favicon.svg"
   inkscape:version="1.4.4 (dcaf3e7, 2026-05-05)"
   xmlns:inkscape="http://www.inkscape.org/namespaces/inkscape"
   xmlns:sodipodi="http://sodipodi.sourceforge.net/DTD/sodipodi-0.dtd"
   xmlns="http://www.w3.org/2000/svg"
   xmlns:svg="http://www.w3.org/2000/svg">
  <defs
     id="defs7" />
  <sodipodi:namedview
     id="namedview7"
     pagecolor="#ffffff"
     bordercolor="#000000"
     borderopacity="0.25"
     inkscape:showpageshadow="2"
     inkscape:pageopacity="0.0"
     inkscape:pagecheckerboard="0"
     inkscape:deskcolor="#d1d1d1"
     inkscape:zoom="36.46875"
     inkscape:cx="16"
     inkscape:cy="16"
     inkscape:window-width="2560"
     inkscape:window-height="1369"
     inkscape:window-x="3832"
     inkscape:window-y="-8"
     inkscape:window-maximized="1"
     inkscape:current-layer="svg7" />
  <!-- Rounded square plate -->
  <rect
     x="0"
     y="0"
     width="32"
     height="32"
     rx="4"
     ry="4"
     fill="#ffa21f"
     id="rect1"
     style="fill:#e7d7c6;fill-opacity:1" />
  <!-- Letters in fg-main brown -->
  <path
     style="font-size:32px;font-family:'Aporetic Serif Mono';-inkscape-font-specification:'Aporetic Serif Mono';fill:#80431a"
     d="m 5.567991,27.632019 v -14.368 h -4.096 v -2.272 h 4.096 v -1.472 q 0,-0.736 0.128,-1.44 0.128,-0.736 0.448,-1.376 0.32,-0.672 0.832,-1.184 0.512,-0.512 1.152,-0.832 0.672,-0.32 1.376,-0.448 0.736,-0.128 1.472,-0.128 h 2.496 v 2.272 h -2.496 q -0.608,0 -1.216,0.224 -0.576,0.192 -0.992,0.64 -0.384,0.448 -0.544,1.056 -0.128,0.608 -0.128,1.216 v 1.472 h 5.376 v 2.272 h -5.376 v 14.368 z m 19.839988,0.256 q -0.768,0 -1.536,-0.224 -0.736,-0.192 -1.344,-0.64 -0.608,-0.48 -1.056,-1.12 -0.416,-0.64 -0.672,-1.376 v 3.104 h -2.528 v -21.248 h -1.568 v -2.272 h 4.096 v 9.984 q 0.256,-0.736 0.672,-1.376 0.448,-0.64 1.056,-1.088 0.608,-0.48 1.344,-0.672 0.768,-0.224 1.536,-0.224 0.8,0 1.568,0.224 0.8,0.224 1.408,0.736 0.64,0.48 1.056,1.184 0.416,0.672 0.672,1.44 0.256,0.768 0.32,1.568 0.096,0.8 0.096,1.568 v 3.712 q 0,0.768 -0.096,1.568 -0.064,0.8 -0.32,1.568 -0.256,0.768 -0.672,1.472 -0.416,0.672 -1.056,1.184 -0.608,0.48 -1.408,0.704 -0.768,0.224 -1.568,0.224 z m -1.024,-2.272 q 0.544,0 1.088,-0.128 0.544,-0.128 0.96,-0.448 0.448,-0.32 0.768,-0.768 0.32,-0.48 0.48,-0.992 0.192,-0.512 0.256,-1.056 0.064,-0.544 0.064,-1.056 v -3.712 q 0,-0.512 -0.064,-1.056 -0.064,-0.544 -0.256,-1.056 -0.16,-0.512 -0.48,-0.96 -0.32,-0.48 -0.768,-0.8 -0.416,-0.32 -0.96,-0.448 -0.544,-0.128 -1.056,-0.128 -0.544,0 -1.088,0.128 -0.544,0.128 -0.992,0.448 -0.416,0.32 -0.736,0.8 -0.32,0.448 -0.512,0.96 -0.16,0.512 -0.224,1.056 -0.064,0.544 -0.064,1.056 v 3.712 q 0,0.512 0.064,1.056 0.064,0.544 0.224,1.056 0.192,0.512 0.512,0.992 0.32,0.448 0.736,0.768 0.448,0.32 0.992,0.448 0.544,0.128 1.056,0.128 z"
     id="text7"
     aria-label="fb" />
</svg>
